<svg width="30" height="30" viewBox="0 0 30 30" fill="none" xmlns="http://www.w3.org/2000/svg">
<path opacity="0.65" d="M26.5496 11.6483C26.0092 11.6483 25.5691 11.2061 25.5619 10.6557V9.207C25.5795 7.97729 25.1158 6.79103 24.2732 5.91015C23.4306 5.02927 22.2785 4.52623 21.0711 4.5121H20.0176C19.4721 4.5121 19.0299 4.06167 19.0299 3.50605C19.0299 2.95042 19.4721 2.5 20.0176 2.5H21.0711C24.6769 2.54408 27.5771 5.53403 27.5768 9.207V10.6423C27.5839 10.9066 27.4858 11.1626 27.3047 11.3521C27.1237 11.5416 26.8751 11.6484 26.6155 11.6483H26.5496Z" fill="#FCFCFE"/>
<path opacity="0.65" d="M3.50307 11.6484C3.24233 11.6519 2.99106 11.5489 2.80544 11.3624C2.61982 11.1758 2.51534 10.9213 2.51536 10.6557V9.207C2.49424 7.43563 3.17032 5.7294 4.39268 4.46923C5.61503 3.20906 7.28187 2.49987 9.02107 2.5H10.101C10.6465 2.5 11.0887 2.95042 11.0887 3.50605C11.0887 4.06168 10.6465 4.5121 10.101 4.5121H9.03424C7.81663 4.5083 6.64878 5.00391 5.79402 5.88717C4.93925 6.77042 4.46954 7.96696 4.49078 9.207V10.6557C4.48357 11.2061 4.04346 11.6484 3.50307 11.6484Z" fill="#FCFCFE"/>
<path d="M27.5373 17.5907V21.3601C27.4952 24.9862 24.6309 27.9215 21.0711 27.9866H20.0044C19.6267 28.0312 19.2574 27.8511 19.0548 27.5234C18.8522 27.1958 18.8522 26.7787 19.0548 26.451C19.2574 26.1234 19.6267 25.9432 20.0044 25.9879H21.0711C23.5825 25.9805 25.6146 23.9047 25.6146 21.3466V17.5907H27.5373Z" fill="#FCFCFE"/>
<path d="M11.0887 26.9939C11.0816 27.5465 10.6435 27.9928 10.101 28H9.02106C5.41532 27.9559 2.5151 24.966 2.51536 21.293V17.5907H4.49077V21.3601C4.49073 23.9129 6.5148 25.9865 9.02106 26.0013H10.101C10.3617 25.9977 10.613 26.1007 10.7986 26.2873C10.9842 26.4738 11.0887 26.7283 11.0887 26.9939Z" fill="#FCFCFE"/>
<path d="M30 16.5847C30 17.1403 29.5578 17.5908 29.0123 17.5908H0.987709C0.442212 17.5908 0 17.1403 0 16.5847C0 16.0291 0.442212 15.5787 0.987709 15.5787H28.9728C29.2415 15.5677 29.503 15.6688 29.6969 15.8587C29.8907 16.0486 30 16.3108 30 16.5847Z" fill="#FCFCFE"/>
<path opacity="0.65" d="M21.8613 13.1507V11.4203C21.8613 10.5843 21.5352 9.78246 20.9548 9.19129C20.3744 8.60012 19.5873 8.26801 18.7665 8.26801H11.2335C9.52432 8.26801 8.13873 9.67933 8.13873 11.4203V13.1507C8.14554 13.3552 8.30671 13.5194 8.50747 13.5263H21.4925C21.6933 13.5194 21.8545 13.3552 21.8613 13.1507Z" fill="#FCFCFE"/>
<path d="M21.8613 17.5907V19.0931C21.8613 20.8341 20.4757 22.2454 18.7665 22.2454H11.2335C9.52432 22.2454 8.13873 20.8341 8.13873 19.0931V17.5907H21.8613Z" fill="#FCFCFE"/>
</svg>
