<svg width="24" height="24" viewBox="0 0 24 24" fill="none" xmlns="http://www.w3.org/2000/svg">
<path d="M21.7728 13.3056L10.6968 2.22959C9.55253 1.21666 8.06489 0.67852 6.53742 0.724974C5.00994 0.771427 3.55775 1.39897 2.47716 2.47956C1.39658 3.56015 0.769032 5.01234 0.722578 6.53981C0.676125 8.06729 1.21426 9.55493 2.22719 10.6992L13.3032 21.7752C14.4474 22.7881 15.9351 23.3263 17.4626 23.2798C18.99 23.2333 20.4422 22.6058 21.5228 21.5252C22.6034 20.4446 23.2309 18.9924 23.2774 17.465C23.3239 15.9375 22.7857 14.4498 21.7728 13.3056ZM10.7328 10.4256C8.66399 12.492 8.15999 14.5296 8.15999 14.5296L3.27359 9.65038C2.43292 8.80264 1.96123 7.65709 1.96123 6.46319C1.96123 5.26928 2.43292 4.12373 3.27359 3.27599C4.12021 2.43226 5.26673 1.9585 6.46199 1.9585C7.65725 1.9585 8.80377 2.43226 9.65039 3.27599L14.5272 8.15999C13.1015 8.61663 11.7999 9.3951 10.7232 10.4352L10.7328 10.4256ZM20.5368 15.12C20.4176 15.2387 20.2562 15.3053 20.088 15.3053C19.9198 15.3053 19.7584 15.2387 19.6392 15.12L15.3936 10.8768C15.3048 10.7883 15.2443 10.6755 15.2196 10.5526C15.195 10.4297 15.2073 10.3023 15.2551 10.1864C15.3029 10.0705 15.384 9.97145 15.4881 9.90167C15.5922 9.83189 15.7147 9.79455 15.84 9.79439C16.008 9.79501 16.1691 9.86134 16.2888 9.97919L20.5368 14.2248C20.6548 14.3439 20.721 14.5047 20.721 14.6724C20.721 14.84 20.6548 15.0009 20.5368 15.12Z" fill="white"/>
</svg>
