<svg width="22" height="24" viewBox="0 0 22 24" fill="none" xmlns="http://www.w3.org/2000/svg">
<path d="M11 14.2113C9.33821 14.2116 7.72774 13.642 6.44296 12.5993C5.15818 11.5567 4.27859 10.1056 3.95405 8.49338C3.62951 6.88113 3.88011 5.20743 4.66314 3.75747C5.44617 2.3075 6.71319 1.17097 8.24832 0.541518C9.78345 -0.08793 11.4917 -0.17135 13.082 0.305471C14.6724 0.782292 16.0464 1.78985 16.97 3.15648C17.8935 4.52311 18.3096 6.16425 18.1471 7.80029C17.9847 9.43632 17.2538 10.966 16.0791 12.1288C15.4137 12.7908 14.6222 13.3158 13.7504 13.6733C12.8786 14.0307 11.9437 14.2136 11 14.2113ZM11 2.18615C10.0159 2.18615 9.05393 2.4749 8.23577 3.01586C7.41761 3.55683 6.78004 4.3257 6.4037 5.22521C6.02737 6.12472 5.92919 7.11444 6.12159 8.06915C6.31398 9.02387 6.78831 9.90069 7.48456 10.5887C8.18081 11.2766 9.06769 11.7449 10.033 11.9341C10.9983 12.1234 11.9987 12.0251 12.9075 11.6518C13.8164 11.2785 14.5929 10.6469 15.1388 9.83691C15.6847 9.02694 15.9755 8.07498 15.9744 7.10147C15.9714 5.79779 15.4462 4.54843 14.5138 3.6271C13.5814 2.70578 12.3178 2.18762 11 2.18615ZM20.895 24C20.602 24 20.3209 23.8848 20.1137 23.6798C19.9065 23.4749 19.7901 23.1968 19.7901 22.9069C19.7901 21.765 19.5627 20.6343 19.121 19.5793C18.6792 18.5243 18.0317 17.5657 17.2155 16.7582C16.3993 15.9508 15.4303 15.3102 14.3638 14.8732C13.2973 14.4363 12.1543 14.2113 11 14.2113C9.84566 14.2113 8.70263 14.4363 7.63617 14.8732C6.5697 15.3102 5.60069 15.9508 4.78446 16.7582C3.96822 17.5657 3.32075 18.5243 2.87901 19.5793C2.43726 20.6343 2.2099 21.765 2.2099 22.9069C2.2099 23.1968 2.09349 23.4749 1.88627 23.6798C1.67905 23.8848 1.398 24 1.10495 24C0.811899 24 0.530851 23.8848 0.323633 23.6798C0.116414 23.4749 0 23.1968 0 22.9069C0.00133268 20.3964 0.879918 17.9635 2.48691 16.0204C4.09391 14.0773 6.3305 12.7435 8.81778 12.2449C11.3051 11.7463 13.8901 12.1137 16.1349 13.2847C18.3798 14.4557 20.1464 16.3584 21.1355 18.6704C21.7093 20.0105 22.0033 21.4516 22 22.9069C22.0002 23.0505 21.9717 23.1927 21.9162 23.3254C21.8608 23.4581 21.7794 23.5787 21.6768 23.6803C21.5741 23.7818 21.4522 23.8623 21.3181 23.9172C21.1839 23.972 21.0402 24.0002 20.895 24Z" fill="white"/>
</svg>
