<svg width="489" height="601" viewBox="0 0 489 601" fill="none" xmlns="http://www.w3.org/2000/svg">
    <path fill-rule="evenodd" clip-rule="evenodd" d="M71.6747 239.78C81.8897 183.736 80.0687 118.559 113.039 78.1477C146.082 37.6485 192.739 43.7063 233.95 40.8841C270.968 38.3491 311.051 33.7407 337.974 62.7439C363.688 90.4452 356.205 148.26 371.091 188.624C389.16 237.623 446.708 264.88 433.955 323.017C421.261 380.89 357.1 381.548 320.479 419.362C288.343 452.544 270.582 509.682 233.998 529.486C192.365 552.024 144.193 560.346 109.506 533.572C74.8262 506.804 62.9792 447.418 55.8395 391.973C49.483 342.609 62.24 291.543 71.6747 239.78Z" fill="#F99158"/>
</svg>
