<svg width="330" height="429" viewBox="0 0 330 429" fill="none" xmlns="http://www.w3.org/2000/svg">
    <path fill-rule="evenodd" clip-rule="evenodd" d="M159.272 0.952392C204.172 -6.34051 248.603 29.4793 275.224 66.3794C298.798 99.0567 280.906 144.221 290.81 183.283C299.68 218.266 333.171 245.529 329.757 281.458C326.029 320.686 302.48 356.304 271.998 381.26C240.389 407.137 199.86 416.472 159.272 421.031C114.006 426.116 58.5815 441.207 26.5213 408.835C-6.16341 375.832 17.8026 319.755 13.1884 273.526C9.83824 239.961 -6.91519 207.487 3.21292 175.312C13.3873 142.991 45.1948 125.317 67.7898 100.072C98.528 65.7295 113.789 8.34007 159.272 0.952392Z" fill="#1E98A1"/>
</svg>
