<svg width="419" height="425" viewBox="0 0 419 425" fill="none" xmlns="http://www.w3.org/2000/svg">
    <path fill-rule="evenodd" clip-rule="evenodd" d="M211.712 0.0677623C253.512 1.62774 286.706 35.2845 321.309 61.9669C357.224 89.6618 404.072 110.495 416.281 157.813C428.439 204.937 396.763 250.025 381.704 296.055C367.429 339.692 367.22 398.212 330.715 419.369C293.89 440.711 253.053 394.506 211.712 394.578C170.259 394.649 131.358 436.006 92.4442 419.782C50.7635 402.404 20.2325 357.014 6.54227 309.038C-7.14314 261.079 2.40788 208.956 18.9322 162.164C34.6127 117.762 62.9022 82.0507 96.7543 53.5866C130.875 24.8968 169.283 -1.51567 211.712 0.0677623Z" fill="black" fill-opacity="0.5"/>
</svg>
