<?xml version="1.0" encoding="UTF-8" standalone="no"?>
<svg
   width="559.98499pt"
   height="513.73499pt"
   version="1.1"
   viewBox="0 0 559.98499 513.73499"
   id="svg4"
   sodipodi:docname="noun-delete-34719.svg"
   inkscape:version="1.1 (c68e22c387, 2021-05-23)"
   xmlns:inkscape="http://www.inkscape.org/namespaces/inkscape"
   xmlns:sodipodi="http://sodipodi.sourceforge.net/DTD/sodipodi-0.dtd"
   xmlns="http://www.w3.org/2000/svg"
   xmlns:svg="http://www.w3.org/2000/svg">
  <defs
     id="defs8" />
  <sodipodi:namedview
     id="namedview6"
     pagecolor="#ffffff"
     bordercolor="#666666"
     borderopacity="1.0"
     inkscape:pageshadow="2"
     inkscape:pageopacity="0.0"
     inkscape:pagecheckerboard="0"
     inkscape:document-units="pt"
     showgrid="false"
     inkscape:zoom="0.14262091"
     inkscape:cx="462.76523"
     inkscape:cy="957.08264"
     inkscape:window-width="1920"
     inkscape:window-height="991"
     inkscape:window-x="-9"
     inkscape:window-y="-9"
     inkscape:window-maximized="1"
     inkscape:current-layer="svg4" />
  <path
     d="M 549.53,0.25312424 C 446.04,17.976124 356.47,68.069124 283.33,126.30312 202.744,54.233124 132.58,14.943124 132.58,14.943124 c -33.656,-20.9729998 -75.77,-15.17599976 -108.22,0 -32.48,15.148 -32.48,62.746 0,69.242 71.203,27.858996 133.79,64.765996 188.47,105.109996 -96.738,96.266 -150.28,191.86 -150.28,191.86 -20.945,33.656 -15.148,75.77 0,108.22 15.176,32.48 62.777,32.48 69.273,0 37.883,-96.77 92.262,-177.74 149.63,-244.3 166.15,148.26 237.02,310.41 232.04,256.87 -22.344,-130.51 -96.098,-238.84 -172.82,-319.96 C 473.283,51.765124 597.323,-4.2048758 549.523,0.24512424 Z"
     id="path2" />
</svg>
