<svg width="23" height="24" viewBox="0 0 23 24" fill="none" xmlns="http://www.w3.org/2000/svg">
    <path d="M15.2906 2.73749C13.5987 0.971791 11.3496 0 8.95701 0C6.56446 0 4.31531 0.972089 2.62373 2.73749C0.931591 4.5032 0 6.85013 0 9.34669C0 11.8432 0.931876 14.1902 2.62345 15.9559C4.31531 17.721 6.56418 18.6934 8.95701 18.6934C11.3496 18.6934 13.5987 17.7213 15.2909 15.9559C18.7832 12.3114 18.7829 6.38193 15.2906 2.73749ZM13.6785 14.2735C12.4171 15.5894 10.7404 16.3137 8.95701 16.3137C7.17365 16.3137 5.49718 15.5891 4.23606 14.2735C2.97493 12.9569 2.28052 11.2076 2.28052 9.34669C2.28052 7.4858 2.97522 5.73586 4.23606 4.41991C5.4969 3.10396 7.17365 2.37965 8.95701 2.37965C10.7404 2.37965 12.4171 3.10426 13.6782 4.41991C16.2812 7.13658 16.2812 11.5568 13.6785 14.2735ZM22.666 21.969L17.8838 16.9788C17.4382 16.5139 16.7162 16.5139 16.2715 16.9788C15.8259 17.4432 15.8259 18.1966 16.2715 18.6612L21.0537 23.6514C21.2764 23.8837 21.5683 24 21.8599 24C22.1515 24 22.4437 23.8837 22.666 23.6514C23.1113 23.1865 23.1113 22.433 22.666 21.969Z" fill="black"/>
</svg>
